<svg width="60" height="60" viewBox="0 0 60 60" fill="none" xmlns="http://www.w3.org/2000/svg">
<circle cx="30" cy="30" r="30" fill="#FCF0F3"/>
<g clip-path="url(#clip0)">
<path d="M32.8728 37.8546H32.0614V27.0358L35.1718 23.7902L35.848 24.4664L32.8728 27.3063V37.8546Z" fill="#34665F"/>
<path d="M35.848 45.8333H32.0614V27.3063L24.0826 19.4627L24.7588 18.7866L32.8728 27.0358L35.848 45.8333Z" fill="#34665F"/>
<path d="M39.6345 21.7617C39.905 20.6798 39.905 19.8684 39.905 19.8684V19.7332H39.7697C39.7697 19.7332 38.9583 19.7332 37.8765 20.0037C37.4708 20.1389 37.2003 20.1389 36.7946 20.2741C36.5241 20.2741 36.3889 20.2741 36.1184 20.4094C35.848 20.5446 35.7127 20.6798 35.4423 20.6798C35.1718 20.8151 34.7661 21.0855 34.6309 21.356C34.0899 21.8969 33.9547 22.4379 33.9547 23.114C33.9547 23.7902 34.2252 24.3311 34.6309 24.7368L33.4138 25.9539C33.4138 25.9539 33.4138 26.0892 33.4138 26.2244H33.549H33.6842L34.7661 25.1425C35.1718 25.5482 35.848 25.8187 36.3889 25.8187C37.0651 25.8187 37.7412 25.5482 38.1469 25.1425C38.4174 24.7368 38.6879 24.4664 38.8231 24.0607C38.9583 23.7902 39.0936 23.655 39.0936 23.3845C39.2288 23.2493 39.2288 22.9788 39.364 22.7083C39.4993 22.4379 39.6345 22.1674 39.6345 21.7617Z" fill="#34665F"/>
<path d="M21.7836 20.6798C21.9189 21.0855 22.0541 21.356 22.1893 21.7617C22.3246 22.0322 22.595 22.4379 22.7303 22.8436C23.0007 23.3845 23.4064 23.7902 23.8121 24.1959C24.6235 25.0073 25.5702 25.413 26.6521 25.413C27.5987 25.413 28.5453 25.0073 29.3567 24.4664L31.1148 26.2244C31.1148 26.2244 31.25 26.3597 31.3852 26.3597C31.5205 26.3597 31.5205 26.3597 31.6557 26.2244C31.7909 26.0892 31.7909 25.954 31.6557 25.8187L29.8977 24.0607C30.5738 23.3845 30.8443 22.4379 30.8443 21.356C30.8443 20.2741 30.4386 19.1923 29.6272 18.5161C29.2215 17.9752 28.6806 17.7047 28.1396 17.299C27.8692 17.1638 27.4635 17.0285 27.0578 16.758C26.7873 16.6228 26.5168 16.4876 26.1111 16.4876C25.5702 16.2171 25.0293 16.0819 24.3531 15.9466C22.7303 15.6762 21.3779 15.6762 21.3779 15.6762C21.2427 15.6762 21.2427 15.6762 21.1075 15.8114C21.1075 15.8114 20.9722 15.9466 20.9722 16.0819C20.9722 16.0819 20.9722 17.4342 21.3779 19.1923C21.5132 19.598 21.6484 20.1389 21.7836 20.6798Z" fill="#34665F"/>
<path d="M21.1075 39.6126C20.7018 40.2888 20.4313 41.2354 20.4313 41.7763C20.4313 41.9116 20.4313 42.0468 20.4313 42.3173L15.9686 34.7442C15.9686 34.4737 15.8333 34.2032 15.8333 33.7975C15.8333 33.5271 15.9686 33.1214 16.1038 32.8509L18.2676 29.0643L15.8333 27.8472L23.5417 27.712L27.3282 34.4737L24.894 33.1214L21.1075 39.6126Z" fill="#34665F"/>
<path d="M25.0293 45.8333C23.0007 45.8333 21.3779 44.2105 21.3779 42.182C21.3779 41.6411 21.6484 40.6945 21.9189 40.0183L23.136 37.9898H31.1148V45.8333H25.0293Z" fill="#34665F"/>
<path d="M35.4423 37.9898L36.7946 45.8333H43.962L40.1755 37.9898H35.4423Z" fill="#34665F"/>
<path d="M20.7018 15.2705L28.5453 23.3845" stroke="white" stroke-width="0.590161" stroke-miterlimit="10" stroke-linecap="round"/>
<path d="M44.5029 15.4057L36.5241 23.2492" stroke="white" stroke-width="0.590161" stroke-miterlimit="10" stroke-linecap="round"/>
</g>
<defs>
<clipPath id="clip0">
<rect width="29.0753" height="30.8333" fill="white" transform="translate(15.8333 15)"/>
</clipPath>
</defs>
</svg>
