<svg width="60" height="60" viewBox="0 0 60 60" fill="none" xmlns="http://www.w3.org/2000/svg">
<circle cx="30" cy="30" r="30" fill="#FCF0F3"/>
<g clip-path="url(#clip0)">
<path d="M21.1167 42.1332L18.95 39.5332C18.3 38.6666 17.8667 37.5832 17.8667 36.4999V30.8666C17.8667 29.9999 18.625 29.2416 19.4917 29.2416C20.3583 29.2416 21.1167 29.9999 21.1167 30.8666V34.9832" stroke="#14453D" stroke-width="1.7" stroke-linecap="round" stroke-linejoin="round"/>
<path d="M25.8833 42.2416V38.9916C25.8833 38.0166 25.5583 37.0416 25.0167 36.2832L23.825 34.3332C23.6083 34.0082 23.2833 33.6832 22.85 33.6832C22.4167 33.5749 21.9833 33.6832 21.6583 33.8999C21.0083 34.3332 20.7917 35.1999 21.1167 35.8499L22.6333 38.2332" stroke="#14453D" stroke-width="1.7" stroke-linecap="round" stroke-linejoin="round"/>
<path d="M38.8833 42.1332L41.05 39.5332C41.7 38.6666 42.1333 37.5832 42.1333 36.4999V30.8666C42.1333 29.9999 41.375 29.2416 40.5083 29.2416C39.6417 29.2416 38.8833 29.9999 38.8833 30.8666V34.9832" stroke="#14453D" stroke-width="1.7" stroke-linecap="round" stroke-linejoin="round"/>
<path d="M34.1167 42.1332V38.8832C34.1167 37.9082 34.4417 36.9332 34.9833 36.1749L36.175 34.3332C36.3917 34.0082 36.7167 33.6832 37.15 33.6832C37.5833 33.5749 38.0167 33.6832 38.3417 33.8999C38.9917 34.3332 39.2083 35.1999 38.8833 35.8499L37.3667 38.2332" stroke="#14453D" stroke-width="1.7" stroke-linecap="round" stroke-linejoin="round"/>
<path d="M34.875 26.75C34.875 28.4833 34.0083 30.1083 32.4917 30.975C30.975 31.8416 29.1333 31.8416 27.6167 30.975C26.1 30.1083 25.125 28.4833 25.125 26.75C25.125 22.6333 29.2417 17.7583 30 17.7583C30.7583 17.7583 34.875 22.6333 34.875 26.75Z" stroke="#14453D" stroke-width="1.7" stroke-linecap="round" stroke-linejoin="round"/>
<path d="M30 28.375C29.1333 28.375 28.375 27.6167 28.375 26.75" stroke="#14453D" stroke-width="1.7" stroke-linecap="round" stroke-linejoin="round"/>
</g>
<defs>
<clipPath id="clip0">
<rect width="26" height="26" fill="white" transform="translate(17 17)"/>
</clipPath>
</defs>
</svg>
