<svg width="60" height="60" viewBox="0 0 60 60" fill="none" xmlns="http://www.w3.org/2000/svg">
<circle cx="30" cy="30" r="30" fill="#FCF0F3"/>
<g clip-path="url(#clip0)">
<path d="M33.1286 41.5554C33.7951 40.6223 34.4616 39.2893 34.4616 37.9563C34.4616 36.2235 33.5285 34.3573 30.4626 32.6244C29.5295 32.0912 28.3299 31.6913 26.9969 31.2914C26.4637 32.3578 21.265 42.8884 31.3957 43.4216C31.3957 43.4216 31.529 43.2883 31.6623 43.2883C31.7956 43.2883 31.9289 43.155 31.9289 43.155C31.9289 43.155 31.9289 43.155 32.0622 43.0217C32.1955 42.8884 32.1955 42.8884 32.3288 42.7551C32.4621 42.4885 32.7287 42.0886 33.1286 41.5554Z" fill="#FCF0F3"/>
<path d="M28.5964 28.3589C28.5964 28.3589 28.1965 28.0923 27.3968 27.6924C26.597 27.2925 25.3973 27.2925 25.3973 27.2925C25.3973 27.2925 26.597 26.3594 28.0632 25.293C23.6644 23.6934 19.7988 23.5601 18.8657 23.5601H18.7324L15.5332 29.5585C16.333 29.5585 18.999 29.5585 21.9315 29.9584C24.9974 30.3583 28.4631 31.0248 30.7292 32.2245C33.7951 34.0907 34.8615 36.0902 34.8615 37.9563C34.8615 41.0222 32.1955 43.4216 32.1955 43.4216C32.3288 43.4216 32.4621 43.4216 32.5954 43.4216C32.7287 43.4216 32.862 43.4216 33.1286 43.2883C34.0617 43.155 35.2614 42.0886 36.3277 40.6223C37.2608 39.156 37.9273 37.2898 37.9273 35.2904C37.9273 33.0243 36.9942 30.7582 34.5949 28.7588C33.2619 27.6924 31.7956 26.7593 30.4626 26.0928L28.5964 28.3589Z" fill="#FCF0F3"/>
<path d="M44.459 15.2956C44.3257 15.1623 44.1924 15.1623 44.0591 15.1623C43.9258 15.1623 43.7925 15.1623 43.6592 15.2956C43.5259 15.4289 43.3926 15.4289 43.3926 15.5622C43.2593 15.6955 43.2593 15.8288 43.2593 15.9621C43.2593 16.0954 43.2593 16.2287 43.3926 16.362C43.5259 16.4953 43.5259 16.6286 43.6592 16.6286C43.7925 16.7619 43.9258 16.7619 44.0591 16.7619C44.1924 16.7619 44.3257 16.7619 44.459 16.6286C44.5923 16.4953 44.7256 16.4953 44.7256 16.362C44.8589 16.2287 44.8589 16.0954 44.8589 15.9621C44.8589 15.8288 44.8589 15.6955 44.7256 15.5622C44.7256 15.4289 44.5923 15.2956 44.459 15.2956ZM44.1924 16.6286L44.0591 16.4953C44.0591 16.362 43.9258 16.2287 43.9258 16.2287H43.7925V16.7619H43.5259V15.4289H43.7925C44.0591 15.4289 44.1924 15.4289 44.1924 15.4289C44.3257 15.4289 44.3257 15.4289 44.3257 15.4289C44.3257 15.4289 44.459 15.4289 44.459 15.5622V15.6955C44.459 15.8288 44.459 15.8288 44.3257 15.9621C44.3257 15.9621 44.1924 16.0954 44.0591 16.0954C44.0591 16.0954 44.0591 16.0954 44.1924 16.0954C44.1924 16.0954 44.1924 16.0954 44.3257 16.2287C44.3257 16.2287 44.3257 16.2287 44.459 16.362L44.5923 16.6286H44.1924Z" fill="white"/>
<path d="M29.1297 15.6955C25.9305 13.696 22.9979 15.5622 22.9979 15.5622L32.1955 20.361C32.1955 20.361 32.4621 17.5617 29.1297 15.6955Z" fill="#34665F"/>
<path d="M28.5964 22.0938C31.7956 22.8936 32.0622 20.7608 32.0622 20.7608L22.8646 15.9621C22.8646 15.9621 25.3973 21.294 28.5964 22.0938Z" fill="#34665F"/>
<path d="M42.9927 21.2941C42.9927 21.2941 41.6597 18.2282 38.7271 18.2282C36.8609 18.2282 35.6613 19.1613 33.9284 20.4943C32.9953 21.2941 30.3293 23.2935 28.1966 25.0264C23.931 23.2935 19.7988 23.1602 18.8657 23.1602C18.7324 23.1602 18.7324 23.1602 18.7324 23.1602L15 29.5586C15 29.5586 15 29.5586 15 29.6919C15 29.6919 15 29.6919 15 29.8252C15 29.8252 15 29.8252 15.1333 29.8252H15.2666C15.9331 29.8252 18.7324 29.8252 21.6649 30.2251C21.7982 30.2251 22.0648 30.2251 22.1981 30.3584C21.6649 31.0249 18.999 33.9574 18.999 38.6229C18.999 43.6882 23.6644 45.6877 26.1971 45.821C29.1296 45.9543 30.3293 45.0212 32.4621 43.9548C33.5285 43.4216 35.3947 42.3552 36.3278 40.8889C37.2608 39.4226 38.0606 37.4232 38.0606 35.2904C38.0606 33.0243 37.1275 30.4917 34.5949 28.4922C33.2619 27.4258 31.7956 26.4927 30.4626 25.8262L33.3952 21.9606C33.3952 21.9606 32.862 24.4932 36.0612 24.7598C39.2603 25.0264 42.9927 21.694 42.9927 21.694C42.9927 21.694 34.195 21.8273 33.9284 21.694C33.7951 21.5607 33.7951 21.4274 33.9284 21.2941H42.9927ZM31.9289 43.0217C31.9289 43.0217 31.7956 43.0217 31.9289 43.0217C31.7956 43.155 31.529 43.2883 31.3957 43.4216C21.265 42.7551 26.4637 32.2245 26.9969 31.1582C28.3299 31.558 29.5295 31.9579 30.4626 32.4911C33.5285 34.224 34.4616 36.2235 34.4616 37.8231C34.4616 39.2893 33.7951 40.489 33.1286 41.4221C32.862 41.9553 32.4621 42.2219 32.1955 42.4885C32.0622 42.8884 32.0622 42.8884 31.9289 43.0217ZM34.4616 28.7588C36.8609 30.7583 37.794 33.0243 37.794 35.2904C37.794 37.2899 37.1275 39.156 36.1945 40.6223C35.2614 42.0886 34.0617 42.8884 32.9953 43.2883C32.862 43.4216 32.5954 43.4216 32.4621 43.4216C32.3288 43.4216 32.1955 43.4216 32.0622 43.4216C32.0622 43.4216 34.7282 41.0222 34.7282 37.9564C34.7282 36.0902 33.6618 34.0907 30.5959 32.2245C28.3299 30.8916 24.8641 30.2251 21.7982 29.9585C18.999 29.5586 16.333 29.5586 15.5332 29.5586L18.7324 23.5601H18.8657C19.7988 23.5601 23.6644 23.6934 28.0633 25.1597C26.597 26.3594 25.3973 27.1592 25.3973 27.1592C25.3973 27.1592 26.597 27.2925 27.3968 27.5591C28.1966 27.959 28.5964 28.2256 28.5964 28.2256L30.196 26.0928C31.6623 26.8926 33.1286 27.6924 34.4616 28.7588Z" fill="#34665F"/>
<path d="M44.3257 16.2287C44.3257 16.2287 44.1924 16.0954 44.3257 16.2287C44.1924 16.0954 44.1924 16.0954 44.1924 16.0954C44.3257 16.0954 44.3257 16.0954 44.459 15.9621C44.459 15.9621 44.5923 15.8288 44.5923 15.6955V15.5622C44.5923 15.5622 44.5923 15.4289 44.459 15.4289H44.3257C44.3257 15.4289 44.1924 15.4289 43.9258 15.4289H43.6592V16.6286H43.9258V16.0954H44.0591C44.0591 16.0954 44.1924 16.2287 44.1924 16.362L44.3257 16.4953H44.5923L44.3257 16.362C44.3257 16.2287 44.3257 16.2287 44.3257 16.2287ZM44.0591 15.9621C44.0591 15.9621 43.9258 15.9621 43.7925 15.9621H43.6592V15.5622H43.7925C43.9258 15.5622 44.0591 15.5622 44.0591 15.5622C44.0591 15.5622 44.0591 15.5622 44.1924 15.5622C44.1924 15.5622 44.1924 15.5622 44.1924 15.6955C44.1924 15.8288 44.1924 15.8288 44.0591 15.9621C44.1924 15.8288 44.0591 15.9621 44.0591 15.9621Z" fill="#34665F"/>
<path d="M44.9922 15.4289C44.8589 15.2956 44.7256 15.1623 44.5923 15.0291C44.459 14.8958 44.1924 14.8958 44.0591 14.8958C43.9258 14.8958 43.6592 14.8958 43.5259 15.0291C43.3926 15.1623 43.2593 15.2956 43.126 15.4289C42.9927 15.5622 42.9927 15.8288 42.9927 15.9621C42.9927 16.0954 42.9927 16.362 43.126 16.4953C43.2593 16.6286 43.3926 16.7619 43.5259 16.8952C43.6592 17.0285 43.9258 17.0285 44.0591 17.0285C44.1924 17.0285 44.459 17.0285 44.5923 16.8952C44.7256 16.7619 44.8589 16.6286 44.9922 16.4953C45.1254 16.362 45.1254 16.0954 45.1254 15.9621C45.1254 15.8288 44.9922 15.5622 44.9922 15.4289ZM44.7256 16.4953C44.5923 16.6286 44.5923 16.7619 44.459 16.7619C44.3257 16.8952 44.1924 16.8952 44.0591 16.8952C43.9258 16.8952 43.7925 16.8952 43.6592 16.7619C43.5259 16.6286 43.3926 16.6286 43.3926 16.4953C43.2593 16.362 43.2593 16.2287 43.2593 16.0954C43.2593 15.9621 43.2593 15.8288 43.3926 15.6955C43.5259 15.5622 43.5259 15.4289 43.6592 15.4289C43.7925 15.2956 43.9258 15.2956 44.0591 15.2956C44.1924 15.2956 44.3257 15.2956 44.459 15.4289C44.5923 15.5622 44.7256 15.5622 44.7256 15.6955C44.8589 15.8288 44.8589 15.9621 44.8589 16.0954C44.8589 16.0954 44.8589 16.362 44.7256 16.4953Z" fill="#34665F"/>
</g>
<defs>
<clipPath id="clip0">
<rect width="30.1254" height="31.0585" fill="white" transform="translate(15 14.7624)"/>
</clipPath>
</defs>
</svg>
