<svg width="60" height="60" viewBox="0 0 60 60" fill="none" xmlns="http://www.w3.org/2000/svg">
<circle cx="30" cy="30" r="30" fill="#FCF0F3"/>
<path d="M35.9458 20.0407C37.3186 19.7661 38.417 18.6678 38.417 17.2949C38.5542 15.6475 37.4559 14.4119 36.2203 14.1373C35.9458 14.1373 35.8085 14 35.5339 14H35.122C34.9848 14 34.9848 14 34.8475 14C33.2 14.2746 32.1017 15.7847 32.3763 17.4322C32.7881 19.0797 34.2983 20.178 35.9458 20.0407Z" fill="#34665F"/>
<path d="M42.261 29.239C39.6526 29.1017 37.1814 29.1017 34.5729 28.9644C34.4356 28.9644 34.2983 28.9644 34.2983 29.239C34.2983 29.6509 34.161 30.0627 34.161 30.4746C33.8865 31.9848 33.7492 33.3576 33.4746 34.8678C33.2 36.378 33.0627 37.8881 32.7882 39.261C32.5136 40.7712 32.3763 42.1441 32.1017 43.6542C31.9644 44.478 31.8271 45.3017 31.6898 46.1254C31.6898 46.2627 31.6898 46.4 31.8271 46.4C31.9644 46.4 32.1017 46.4 32.1017 46.2627C32.1017 46.2627 32.1017 46.2627 32.1017 46.1254C33.8865 42.9678 35.6712 39.6729 37.3187 36.378C37.4559 36.1034 37.5932 35.8288 37.8678 35.417C37.8678 35.6915 38.0051 35.9661 38.0051 36.1034C38.8288 39.3983 39.6526 42.6932 40.339 45.9881C40.339 46.1254 40.4763 46.2627 40.6136 46.2627C40.7509 46.2627 40.8881 46.1254 40.8881 45.9881C41.0254 45.1644 41.0254 44.2034 41.1627 43.3797C41.3 41.7322 41.4373 40.222 41.5746 38.5746C41.7119 36.9271 41.8492 35.417 41.9865 33.7695C42.1237 32.2593 42.261 30.7492 42.3983 29.239C42.5356 29.239 42.3983 29.239 42.261 29.239Z" fill="#34665F"/>
<path d="M42.3983 27.4542C41.8491 25.6695 41.0254 24.022 40.2017 22.3746C39.7898 21.5508 39.378 20.8644 38.8288 20.178C38.6915 20.0407 38.5542 20.0407 38.4169 20.0407C35.8085 20.0407 33.2 20.0407 30.7288 20.0407H23.0407H22.9034C22.7661 20.0407 22.7661 20.178 22.6288 20.3153C22.6288 20.4525 22.6288 20.5898 22.7661 20.5898H22.9034C26.061 21.5508 29.3559 22.5119 32.5136 23.4729L32.6508 23.6102C32.7881 23.8847 32.9254 24.1593 33.0627 24.4339C33.6119 25.8068 34.0237 27.1797 34.161 28.6898C34.161 28.8271 34.2983 28.9644 34.4356 28.9644H34.5729C35.5339 28.9644 36.4949 28.8271 37.4559 28.8271C38.9661 28.6898 40.6136 28.6898 42.1237 28.5525C42.3983 28.5525 42.3983 28.4153 42.3983 28.1407C42.5356 28.0034 42.3983 27.7288 42.3983 27.4542Z" fill="#34665F"/>
<path d="M20.2949 28.278C20.9814 28.8271 21.9424 28.9644 22.7661 28.9644C23.4526 28.8271 24.139 28.8271 24.8254 28.6899C25.3746 28.6899 25.9238 28.5526 26.3356 28.8271H26.4729C26.4729 28.8271 26.6102 28.6899 26.7475 28.6899C26.7475 28.5526 26.7475 28.4153 26.7475 28.4153C26.7475 28.278 26.7475 28.1407 26.7475 28.0034C26.8848 27.8661 26.8848 27.7288 27.0221 27.5916C27.4339 27.1797 27.8458 26.7678 28.1204 26.4932C28.5322 26.0814 28.9441 25.8068 29.4932 25.3949C29.6305 25.2577 29.6305 25.1204 29.6305 24.9831C29.4932 24.8458 29.4932 24.8458 29.2187 24.8458C29.0814 24.8458 28.9441 24.8458 28.8068 24.8458C28.5322 24.8458 28.3949 24.8458 28.3949 24.7085C28.2576 24.4339 28.1204 24.0221 27.9831 23.7475C27.9831 23.4729 27.7085 23.4729 27.5712 23.6102C27.4339 23.6102 27.2966 23.7475 27.1593 23.7475C26.8848 24.0221 26.6102 24.2966 26.1983 24.2966C25.7865 24.4339 25.3746 24.4339 24.9627 24.4339C24.6882 24.4339 24.4136 24.4339 24.139 24.2966C23.8644 24.1593 23.4526 24.0221 23.0407 23.8848C22.7661 23.7475 22.6288 23.8848 22.4915 24.1594C22.4915 24.2966 22.4915 24.2966 22.3543 24.4339C22.217 24.9831 21.9424 25.3949 21.6678 25.8068C21.256 26.356 20.5695 26.9051 19.8831 27.1797C19.6085 27.317 19.6085 27.5916 19.7458 27.7288C19.8831 28.0034 20.1577 28.1407 20.2949 28.278ZM27.5712 24.2966C27.7085 24.4339 27.8458 24.7085 27.8458 24.9831C27.4339 24.9831 26.8848 24.9831 26.4729 24.8458C26.8848 24.7085 27.2966 24.4339 27.5712 24.2966ZM20.4322 27.5916C21.6678 26.9051 22.4915 25.8068 23.0407 24.4339C23.7271 24.8458 24.4136 24.9831 25.2373 25.2577C25.9238 25.3949 26.4729 25.5322 27.1593 25.5322C27.5712 25.5322 27.9831 25.5322 28.2576 25.5322C28.1204 25.6695 27.9831 25.8068 27.8458 25.9441C27.5712 26.2187 27.1593 26.4932 26.8848 26.9051C26.6102 27.317 26.3356 27.7288 26.061 28.1407C25.2373 28.0034 24.2763 28.1407 23.4526 28.278C23.0407 28.278 22.6288 28.4153 22.217 28.4153C21.9424 28.4153 21.8051 28.4153 21.5305 28.278C21.256 28.278 20.8441 28.0034 20.5695 27.7288C20.5695 27.7288 20.4322 27.7288 20.4322 27.5916Z" fill="#34665F"/>
<path d="M30.0424 29.6508C25.9237 29.6508 21.9424 29.6508 17.8237 29.6508C17.8237 29.6508 17.8237 29.6508 17.6864 29.6508C17.4119 29.6508 17.1373 29.9254 17 30.2C17 30.6119 17.1373 30.8864 17.4119 31.0237C17.5492 31.0237 17.5492 31.0237 17.6864 31.0237V31.161L18.5102 34.3186C18.922 36.378 19.1966 38.3 19.6085 40.3593C20.0203 42.2814 20.2949 44.2034 20.7068 45.9881C20.7068 46.2627 20.8441 46.4 21.2559 46.4H25.3746H28.2576C28.5322 46.4 28.6695 46.2627 28.8068 45.9881C28.8068 45.7136 28.8068 45.439 28.9441 45.1644L29.2186 42.1441C29.3559 41.0458 29.3559 40.0847 29.4932 38.9864C29.6305 38.0254 29.6305 36.9271 29.7678 35.9661C29.9051 34.8678 29.9051 33.9068 30.0424 32.8085C30.0424 32.2593 30.1797 31.7102 30.1797 31.161H30.3169C30.8661 31.0237 31.0034 30.3373 30.5915 30.0627C30.4542 29.7881 30.3169 29.6508 30.0424 29.6508ZM23.8644 36.5153C23.8644 36.9271 23.8644 37.4763 23.8644 37.8881H22.3542C22.2169 37.339 22.2169 36.7898 22.0797 36.1034H23.7271C23.8644 36.2407 23.8644 36.378 23.8644 36.5153ZM23.7271 33.6322C23.7271 34.1814 23.7271 34.7305 23.7271 35.4169H22.0797C22.0797 35.0051 21.9424 34.4559 21.9424 34.0441C21.9424 33.9068 21.9424 33.7695 21.9424 33.6322H23.7271ZM21.5305 31.161H23.7271C23.7271 31.7102 23.7271 32.2593 23.7271 32.9458H21.8051C21.8051 32.6712 21.8051 32.3966 21.6678 32.2593C21.6678 31.7102 21.5305 31.4356 21.5305 31.161ZM18.7847 31.161C18.922 31.161 18.922 31.161 18.922 31.161C19.4712 31.161 20.0203 31.161 20.5695 31.161H20.7068C20.7068 31.5729 20.8441 32.122 20.8441 32.5339C20.8441 32.5339 20.8441 32.5339 20.8441 32.6712C20.8441 32.6712 20.8441 32.6712 20.8441 32.8085H19.0593C18.922 32.2593 18.922 31.7102 18.7847 31.161ZM19.6085 35.2797C19.4712 34.7305 19.4712 34.1814 19.3339 33.6322H21.1186C21.1186 33.9068 21.1186 34.1814 21.2559 34.4559C21.2559 34.7305 21.2559 35.0051 21.2559 35.4169C20.7068 35.4169 20.2949 35.4169 19.7458 35.4169C19.6085 35.4169 19.6085 35.4169 19.6085 35.2797ZM19.7458 36.1034H21.3932C21.3932 36.6525 21.5305 37.2017 21.5305 37.7508V37.8881H20.0203C19.883 37.339 19.883 36.7898 19.7458 36.1034ZM20.4322 40.3593C20.4322 40.222 20.2949 39.9475 20.2949 39.8102C20.2949 39.5356 20.1576 39.1237 20.1576 38.8491H21.6678C21.8051 39.3983 21.8051 39.9475 21.9424 40.6339H21.5305C21.2559 40.6339 20.9814 40.6339 20.5695 40.6339C20.5695 40.4966 20.4322 40.4966 20.4322 40.3593ZM20.9814 42.9678C20.8441 42.4186 20.8441 42.0068 20.7068 41.4576V41.3203H22.0797C22.2169 41.8695 22.2169 42.4186 22.3542 43.1051L20.9814 42.9678ZM21.3932 45.5763C21.2559 45.0271 21.1186 44.478 21.1186 43.7915H22.3542C22.4915 44.3407 22.4915 44.8898 22.6288 45.5763H21.3932ZM22.6288 40.3593C22.6288 40.3593 22.6288 40.222 22.6288 40.0847C22.6288 39.8102 22.4915 39.3983 22.4915 39.1237C22.4915 38.9864 22.4915 38.8491 22.4915 38.7119H24.0017C24.0017 39.1237 24.0017 39.5356 24.0017 39.9475C24.0017 40.0847 24.0017 40.3593 24.0017 40.4966H23.0407C22.7661 40.4966 22.7661 40.4966 22.6288 40.3593ZM23.0407 42.9678C22.9034 42.4186 22.9034 41.8695 22.7661 41.183H24.0017C24.0017 41.7322 24.0017 42.2814 24.0017 42.9678H23.0407ZM23.3153 45.5763C23.178 45.0271 23.178 44.478 23.0407 43.7915H24.0017C24.0017 44.3407 24.0017 44.8898 24.0017 45.5763H23.3153ZM26.061 45.5763H24.9627C24.9627 45.0271 24.9627 44.478 24.9627 43.7915H26.1983C26.061 44.3407 26.061 44.8898 26.061 45.5763ZM26.1983 41.7322C26.1983 42.1441 26.1983 42.5559 26.1983 43.1051H24.8254C24.8254 42.5559 24.8254 42.0068 24.8254 41.3203H26.3356C26.1983 41.4576 26.1983 41.5949 26.1983 41.7322ZM26.3356 38.8491C26.3356 38.8491 26.3356 38.9864 26.3356 38.8491C26.3356 39.1237 26.3356 39.261 26.3356 39.5356C26.3356 39.8102 26.3356 40.0847 26.3356 40.3593C26.3356 40.3593 26.3356 40.3593 26.3356 40.4966C26.3356 40.4966 26.3356 40.6339 26.1983 40.6339C26.061 40.6339 26.061 40.6339 25.9237 40.6339C25.5119 40.6339 25.2373 40.6339 24.8254 40.6339C24.8254 40.0847 24.8254 39.5356 24.8254 38.8491H26.4729C26.3356 38.7119 26.3356 38.8491 26.3356 38.8491ZM26.3356 37.8881H24.6881C24.6881 37.339 24.6881 36.7898 24.6881 36.1034H26.4729C26.4729 36.7898 26.3356 37.339 26.3356 37.8881ZM26.4729 34.5932C26.4729 34.8678 26.4729 35.0051 26.4729 35.2797C26.4729 35.2797 26.4729 35.4169 26.3356 35.4169C25.7864 35.4169 25.1 35.4169 24.5508 35.4169C24.5508 34.8678 24.5508 34.3186 24.5508 33.6322H26.4729C26.4729 33.9068 26.4729 34.1814 26.4729 34.5932ZM26.6102 32.8085H24.5508C24.5508 32.2593 24.5508 31.7102 24.5508 31.0237H26.7475C26.6102 31.7102 26.6102 32.2593 26.6102 32.8085ZM27.8458 45.5763H26.8847C26.8847 45.0271 26.8847 44.478 26.8847 43.7915H27.983C27.983 44.3407 27.983 44.8898 27.8458 45.5763ZM28.1203 42.2814C28.1203 42.5559 28.1203 42.8305 27.983 43.1051H27.022C27.022 42.8305 27.022 42.6932 27.022 42.4186C27.022 42.0068 27.022 41.7322 27.022 41.3203H28.2576C28.2576 41.5949 28.2576 41.8695 28.1203 42.2814ZM28.5322 38.7119C28.5322 38.8491 28.5322 38.8491 28.5322 38.9864C28.5322 39.1237 28.5322 39.3983 28.5322 39.5356C28.5322 39.6729 28.5322 39.9475 28.5322 40.0847C28.5322 40.222 28.5322 40.222 28.5322 40.3593V40.4966C28.1203 40.4966 27.7085 40.4966 27.2966 40.4966C27.2966 40.0847 27.2966 39.6729 27.2966 39.261C27.2966 39.1237 27.2966 38.8491 27.2966 38.7119H28.5322ZM28.6695 37.8881H27.1593C27.1593 37.6136 27.1593 37.4763 27.1593 37.2017C27.1593 36.9271 27.1593 36.5153 27.1593 36.2407H28.6695C28.6695 36.7898 28.6695 37.339 28.6695 37.8881ZM28.8068 35.4169H27.2966C27.2966 34.8678 27.2966 34.3186 27.2966 33.6322H28.9441C28.9441 34.1814 28.9441 34.7305 28.8068 35.4169ZM29.0813 32.8085H27.2966C27.2966 32.2593 27.2966 31.7102 27.2966 31.0237H29.2186C29.2186 31.7102 29.2186 32.2593 29.0813 32.8085Z" fill="#34665F"/>
</svg>
