<svg width="60" height="60" viewBox="0 0 60 60" fill="none" xmlns="http://www.w3.org/2000/svg">
<circle cx="30" cy="30" r="30" fill="#FCF0F3"/>
<g clip-path="url(#clip0)">
<path d="M30.9844 41.25L34.3698 38V39.625H37.349H40.3281L40.8698 39.4896C41.1406 39.3542 41.5469 39.2188 41.6823 39.0833C42.7656 38.4063 43.0365 37.0521 42.3594 35.5625C42.224 35.4271 41.276 33.6667 40.1927 31.7708C39.1094 29.875 38.1615 28.25 38.2969 28.25C38.4323 28.1146 40.8698 26.7604 40.8698 26.7604C40.8698 26.7604 41.8177 28.3854 42.901 30.1458C45.0677 33.9375 45.3385 34.3438 45.6094 35.1563C46.6927 38.5417 45.3385 41.25 42.0885 42.1979C41.0052 42.6042 40.8698 42.6042 37.6198 42.6042H34.5052V44.5L30.9844 41.25ZM19.7448 42.4688C17.5781 42.0625 16.0885 41.1146 15.4115 39.625C15.0052 38.9479 14.8698 38.5417 14.8698 37.7292C14.8698 36.7813 14.8698 36.2396 15.276 35.2917C15.5469 34.4792 15.8177 33.8021 17.1719 31.6354C17.7135 30.5521 18.2552 29.7396 18.2552 29.7396L16.901 28.9271C17.0365 28.9271 21.3698 27.5729 21.3698 27.7083C21.3698 27.8438 22.4531 32.1771 22.4531 32.3125L20.8281 31.6354C20.6927 31.9063 18.526 35.5625 18.3906 35.9688C18.1198 36.5104 17.9844 37.0521 18.1198 37.5938C18.2552 38.6771 18.7969 39.4896 20.0156 39.8958L20.4219 40.0313H24.7552H29.0885V42.6042H24.7552C20.8281 42.6042 20.2865 42.6042 19.7448 42.4688ZM21.2344 24.4583C21.2344 24.4583 24.8906 17.8229 25.4323 17.1458C25.974 16.3333 26.7865 15.5208 27.4635 14.9792C27.8698 14.7083 28.6823 14.3021 29.224 14.1667C30.5781 13.8958 32.0677 14.1667 33.2865 15.1146C33.8281 15.5208 34.776 16.4688 35.1823 17.2813C35.4531 17.5521 36.1302 18.7708 36.6719 19.8542C37.2135 20.9375 37.7552 21.8854 37.7552 21.8854L39.2448 21.0729C39.2448 21.0729 38.1615 25.5417 38.1615 25.6771L33.6927 24.4583L35.1823 23.5104C35.1823 23.375 32.8802 19.4479 32.6094 19.0417C31.9323 17.9583 30.849 17.5521 29.901 17.6875C29.224 17.6875 28.4115 18.2292 28.0052 18.9063C27.8698 19.0417 26.9219 20.8021 25.8385 22.5625C24.7552 24.3229 23.8073 25.9479 23.8073 25.9479C22.9948 25.5417 22.0469 25 21.2344 24.4583Z" fill="#34665F"/>
<path d="M30.1719 25.4062C31.1198 25.4062 31.7969 25.6771 32.3385 26.3541C33.0156 27.1666 33.2865 28.3854 33.2865 30.2812C33.2865 32.0416 33.0156 33.3958 32.3385 34.2083C31.7969 34.8854 31.1198 35.1562 30.1719 35.1562C29.224 35.1562 28.4115 34.75 27.8698 34.0729C27.3281 33.3958 27.0573 32.1771 27.0573 30.2812C27.0573 28.5208 27.3281 27.1666 28.0052 26.3541C28.5469 25.6771 29.224 25.4062 30.1719 25.4062ZM30.1719 26.8958C29.901 26.8958 29.7656 27.0312 29.6302 27.1666C29.4948 27.3021 29.3594 27.5729 29.224 27.9791C29.0885 28.5208 29.0885 29.1979 29.0885 30.4166C29.0885 31.6354 29.0885 32.3125 29.224 32.7187C29.3594 33.125 29.4948 33.3958 29.6302 33.5312C29.7656 33.6666 30.0365 33.8021 30.1719 33.8021C30.4427 33.8021 30.5781 33.6666 30.7135 33.5312C30.849 33.3958 30.9844 33.125 31.1198 32.7187C31.2552 32.3125 31.2552 31.5 31.2552 30.2812C31.2552 29.0625 31.2552 28.3854 31.1198 27.9791C30.9844 27.5729 30.849 27.3021 30.7135 27.1666C30.5781 27.0312 30.3073 26.8958 30.1719 26.8958Z" fill="#34665F"/>
</g>
<defs>
<clipPath id="clip0">
<rect width="31.0104" height="30.3333" fill="white" transform="translate(14.8698 14.1667)"/>
</clipPath>
</defs>
</svg>
